<svg width="141" height="35" viewBox="0 0 141 35" fill="none" xmlns="http://www.w3.org/2000/svg">
<path d="M89.7246 34.7505V29.6399C89.7246 29.59 89.7446 29.5475 89.7846 29.5125C89.8295 29.4776 89.8845 29.4601 89.9494 29.4601H91.2758C91.7504 29.4601 92.13 29.59 92.4148 29.8497C92.6995 30.1045 92.8419 30.5067 92.8419 31.0562V33.3342C92.8419 33.8887 92.6995 34.2959 92.4148 34.5557C92.13 34.8105 91.7504 34.9378 91.2758 34.9378H89.9494C89.8845 34.9378 89.8295 34.9204 89.7846 34.8854C89.7446 34.8454 89.7246 34.8005 89.7246 34.7505ZM90.2192 34.4807H91.2758C91.6155 34.4807 91.8778 34.3858 92.0626 34.196C92.2524 34.0012 92.3473 33.7139 92.3473 33.3342V31.0562C92.3473 30.6765 92.2524 30.3918 92.0626 30.2019C91.8778 30.0121 91.6155 29.9172 91.2758 29.9172H90.2192V34.4807Z" fill="#6D6875"/>
<path d="M93.6855 33.5665V32.7272C93.6855 32.3526 93.8253 32.0304 94.1051 31.7606C94.3849 31.4858 94.7221 31.3484 95.1167 31.3484C95.4964 31.3484 95.8236 31.4783 96.0984 31.7381C96.3781 31.9979 96.518 32.3226 96.518 32.7123C96.518 32.8521 96.5005 32.9645 96.4656 33.0495C96.4356 33.1344 96.3831 33.1943 96.3082 33.2293C96.2383 33.2643 96.1733 33.2868 96.1134 33.2968C96.0534 33.3067 95.971 33.3117 95.8661 33.3117H94.1725V33.589C94.1725 33.8838 94.2775 34.121 94.4873 34.3009C94.7021 34.4757 94.9769 34.5632 95.3116 34.5632C95.4814 34.5632 95.6288 34.5382 95.7537 34.4882C95.8836 34.4383 95.981 34.3883 96.0459 34.3384C96.1159 34.2884 96.1708 34.2634 96.2108 34.2634C96.2657 34.2634 96.3132 34.2909 96.3532 34.3459C96.3981 34.3958 96.4206 34.4458 96.4206 34.4957C96.4206 34.6006 96.3132 34.7105 96.0984 34.8254C95.8836 34.9353 95.6163 34.9903 95.2966 34.9903C94.822 34.9903 94.4348 34.8604 94.1351 34.6006C93.8353 34.3359 93.6855 33.9912 93.6855 33.5665ZM94.1725 32.9521H95.6713C95.8211 32.9521 95.921 32.9371 95.971 32.9071C96.021 32.8721 96.0459 32.8022 96.0459 32.6973C96.0459 32.4475 95.956 32.2277 95.7762 32.0378C95.6013 31.848 95.379 31.7531 95.1092 31.7531C94.8495 31.7531 94.6272 31.843 94.4423 32.0229C94.2625 32.2027 94.1725 32.4175 94.1725 32.6673V32.9521Z" fill="#6D6875"/>
<path d="M97.0276 34.4508C97.0276 34.4008 97.0451 34.3508 97.0801 34.3009C97.1151 34.2509 97.155 34.226 97.2 34.226C97.235 34.226 97.2899 34.2559 97.3649 34.3159C97.4398 34.3708 97.5472 34.4283 97.6871 34.4882C97.827 34.5482 97.9943 34.5782 98.1891 34.5782C98.4539 34.5782 98.6487 34.5282 98.7736 34.4283C98.8985 34.3284 98.961 34.201 98.961 34.0461C98.961 33.8663 98.896 33.7239 98.7661 33.619C98.6413 33.5091 98.4889 33.4291 98.309 33.3792C98.1292 33.3292 97.9468 33.2743 97.762 33.2143C97.5822 33.1544 97.4273 33.057 97.2974 32.9221C97.1725 32.7822 97.1101 32.5974 97.1101 32.3676C97.1101 32.0928 97.2075 31.8555 97.4023 31.6557C97.6021 31.4509 97.8994 31.3484 98.2941 31.3484C98.5388 31.3484 98.7661 31.3884 98.976 31.4683C99.1908 31.5433 99.2982 31.6257 99.2982 31.7156C99.2982 31.7656 99.2782 31.8205 99.2382 31.8805C99.1983 31.9404 99.1508 31.9704 99.0959 31.9704C99.0809 31.9704 98.9885 31.9354 98.8186 31.8655C98.6487 31.7956 98.4764 31.7606 98.3015 31.7606C98.0518 31.7606 97.8644 31.8205 97.7395 31.9404C97.6146 32.0603 97.5522 32.1952 97.5522 32.3451C97.5522 32.4999 97.6146 32.6223 97.7395 32.7123C97.8694 32.8022 98.0243 32.8721 98.2041 32.9221C98.389 32.967 98.5713 33.022 98.7512 33.0869C98.936 33.1469 99.0909 33.2568 99.2158 33.4167C99.3456 33.5715 99.4106 33.7738 99.4106 34.0236C99.4106 34.3234 99.3032 34.5607 99.0884 34.7355C98.8785 34.9054 98.5838 34.9903 98.2041 34.9903C97.8744 34.9903 97.5947 34.9328 97.3649 34.8179C97.14 34.698 97.0276 34.5757 97.0276 34.4508Z" fill="#6D6875"/>
<path d="M99.8884 34.0012C99.8884 33.6165 100.036 33.3492 100.331 33.1993C100.63 33.0495 101.065 32.9745 101.634 32.9745H102.017V32.7947C102.017 32.5199 101.944 32.2826 101.799 32.0828C101.654 31.878 101.432 31.7756 101.132 31.7756C100.933 31.7756 100.75 31.813 100.585 31.888C100.425 31.9579 100.341 31.9929 100.331 31.9929C100.271 31.9929 100.223 31.9654 100.188 31.9105C100.153 31.8555 100.136 31.7956 100.136 31.7306C100.136 31.6357 100.243 31.5483 100.458 31.4683C100.673 31.3884 100.903 31.3484 101.147 31.3484C101.617 31.3484 101.959 31.4858 102.174 31.7606C102.394 32.0304 102.504 32.3751 102.504 32.7947V34.743C102.504 34.798 102.481 34.8454 102.436 34.8854C102.391 34.9204 102.334 34.9378 102.264 34.9378C102.199 34.9378 102.144 34.9204 102.099 34.8854C102.059 34.8454 102.039 34.798 102.039 34.743V34.4133C101.704 34.798 101.327 34.9903 100.908 34.9903C100.608 34.9903 100.363 34.9079 100.173 34.743C99.9833 34.5732 99.8884 34.3259 99.8884 34.0012ZM100.375 33.9562C100.375 34.166 100.435 34.3234 100.555 34.4283C100.675 34.5282 100.833 34.5782 101.027 34.5782C101.262 34.5782 101.485 34.4907 101.694 34.3159C101.909 34.141 102.017 33.9662 102.017 33.7913V33.3117H101.702C101.502 33.3117 101.332 33.3192 101.192 33.3342C101.057 33.3492 100.923 33.3767 100.788 33.4167C100.653 33.4566 100.55 33.5216 100.48 33.6115C100.41 33.7014 100.375 33.8163 100.375 33.9562Z" fill="#6D6875"/>
<path d="M103.421 34.743V31.5732C103.421 31.5233 103.444 31.4808 103.489 31.4459C103.534 31.4109 103.591 31.3934 103.661 31.3934C103.726 31.3934 103.781 31.4109 103.826 31.4459C103.871 31.4808 103.894 31.5233 103.894 31.5732V31.9404C103.983 31.7756 104.116 31.6357 104.291 31.5208C104.466 31.4059 104.668 31.3484 104.898 31.3484H105.16C105.21 31.3484 105.255 31.3709 105.295 31.4159C105.335 31.4608 105.355 31.5133 105.355 31.5732C105.355 31.6332 105.335 31.6856 105.295 31.7306C105.255 31.7756 105.21 31.7981 105.16 31.7981H104.898C104.638 31.7981 104.408 31.9005 104.208 32.1053C104.008 32.3051 103.909 32.5674 103.909 32.8921V34.743C103.909 34.793 103.884 34.8379 103.834 34.8779C103.789 34.9179 103.731 34.9378 103.661 34.9378C103.596 34.9378 103.539 34.9179 103.489 34.8779C103.444 34.8379 103.421 34.793 103.421 34.743Z" fill="#6D6875"/>
<path d="M105.902 34.743V31.5732C105.902 31.5233 105.925 31.4808 105.97 31.4459C106.015 31.4109 106.072 31.3934 106.142 31.3934C106.207 31.3934 106.262 31.4109 106.307 31.4459C106.352 31.4808 106.374 31.5233 106.374 31.5732V31.9404C106.464 31.7756 106.597 31.6357 106.771 31.5208C106.946 31.4059 107.149 31.3484 107.378 31.3484H107.641C107.691 31.3484 107.736 31.3709 107.776 31.4159C107.816 31.4608 107.836 31.5133 107.836 31.5732C107.836 31.6332 107.816 31.6856 107.776 31.7306C107.736 31.7756 107.691 31.7981 107.641 31.7981H107.378C107.119 31.7981 106.889 31.9005 106.689 32.1053C106.489 32.3051 106.389 32.5674 106.389 32.8921V34.743C106.389 34.793 106.364 34.8379 106.314 34.8779C106.269 34.9179 106.212 34.9378 106.142 34.9378C106.077 34.9378 106.02 34.9179 105.97 34.8779C105.925 34.8379 105.902 34.793 105.902 34.743Z" fill="#6D6875"/>
<path d="M108.109 33.5665V32.7497C108.109 32.3701 108.249 32.0428 108.529 31.7681C108.808 31.4883 109.14 31.3484 109.525 31.3484C109.91 31.3484 110.245 31.4858 110.529 31.7606C110.814 32.0353 110.956 32.3651 110.956 32.7497V33.5665C110.956 33.9412 110.812 34.2734 110.522 34.5632C110.237 34.8479 109.905 34.9903 109.525 34.9903C109.15 34.9903 108.821 34.8479 108.536 34.5632C108.251 34.2734 108.109 33.9412 108.109 33.5665ZM108.596 33.5665C108.596 33.8213 108.686 34.0486 108.866 34.2484C109.051 34.4433 109.27 34.5407 109.525 34.5407C109.785 34.5407 110.007 34.4433 110.192 34.2484C110.377 34.0486 110.469 33.8213 110.469 33.5665V32.7497C110.469 32.5049 110.374 32.2851 110.185 32.0903C110 31.8955 109.78 31.7981 109.525 31.7981C109.27 31.7981 109.051 31.8955 108.866 32.0903C108.686 32.2851 108.596 32.5049 108.596 32.7497V33.5665Z" fill="#6D6875"/>
<path d="M111.816 34.743V29.4001C111.816 29.3502 111.839 29.3077 111.884 29.2727C111.929 29.2378 111.986 29.2203 112.056 29.2203C112.126 29.2203 112.184 29.2378 112.229 29.2727C112.279 29.3077 112.304 29.3502 112.304 29.4001V34.743C112.304 34.793 112.279 34.8379 112.229 34.8779C112.184 34.9179 112.126 34.9378 112.056 34.9378C111.991 34.9378 111.934 34.9179 111.884 34.8779C111.839 34.8379 111.816 34.793 111.816 34.743Z" fill="#6D6875"/>
<path d="M113.368 34.743V29.4001C113.368 29.3502 113.39 29.3077 113.435 29.2727C113.48 29.2378 113.538 29.2203 113.608 29.2203C113.678 29.2203 113.735 29.2378 113.78 29.2727C113.83 29.3077 113.855 29.3502 113.855 29.4001V34.743C113.855 34.793 113.83 34.8379 113.78 34.8779C113.735 34.9179 113.678 34.9378 113.608 34.9378C113.543 34.9378 113.485 34.9179 113.435 34.8779C113.39 34.8379 113.368 34.793 113.368 34.743Z" fill="#6D6875"/>
<path d="M114.612 34.0012C114.612 33.6165 114.759 33.3492 115.054 33.1993C115.354 33.0495 115.789 32.9745 116.358 32.9745H116.74V32.7947C116.74 32.5199 116.668 32.2826 116.523 32.0828C116.378 31.878 116.156 31.7756 115.856 31.7756C115.656 31.7756 115.474 31.813 115.309 31.888C115.149 31.9579 115.064 31.9929 115.054 31.9929C114.994 31.9929 114.947 31.9654 114.912 31.9105C114.877 31.8555 114.859 31.7956 114.859 31.7306C114.859 31.6357 114.967 31.5483 115.182 31.4683C115.396 31.3884 115.626 31.3484 115.871 31.3484C116.341 31.3484 116.683 31.4858 116.898 31.7606C117.117 32.0304 117.227 32.3751 117.227 32.7947V34.743C117.227 34.798 117.205 34.8454 117.16 34.8854C117.115 34.9204 117.057 34.9378 116.987 34.9378C116.923 34.9378 116.868 34.9204 116.823 34.8854C116.783 34.8454 116.763 34.798 116.763 34.743V34.4133C116.428 34.798 116.051 34.9903 115.631 34.9903C115.331 34.9903 115.087 34.9079 114.897 34.743C114.707 34.5732 114.612 34.3259 114.612 34.0012ZM115.099 33.9562C115.099 34.166 115.159 34.3234 115.279 34.4283C115.399 34.5282 115.556 34.5782 115.751 34.5782C115.986 34.5782 116.208 34.4907 116.418 34.3159C116.633 34.141 116.74 33.9662 116.74 33.7913V33.3117H116.425C116.226 33.3117 116.056 33.3192 115.916 33.3342C115.781 33.3492 115.646 33.3767 115.511 33.4167C115.376 33.4566 115.274 33.5216 115.204 33.6115C115.134 33.7014 115.099 33.8163 115.099 33.9562Z" fill="#6D6875"/>
<path d="M118.01 33.5665V32.7497C118.01 32.3651 118.14 32.0353 118.4 31.7606C118.665 31.4858 118.982 31.3484 119.352 31.3484C119.581 31.3484 119.781 31.4034 119.951 31.5133C120.126 31.6232 120.256 31.7581 120.341 31.9179V29.4001C120.341 29.3502 120.366 29.3077 120.416 29.2727C120.466 29.2378 120.526 29.2203 120.595 29.2203C120.665 29.2203 120.72 29.2378 120.76 29.2727C120.805 29.3077 120.828 29.3502 120.828 29.4001V34.743C120.828 34.793 120.805 34.8379 120.76 34.8779C120.715 34.9179 120.66 34.9378 120.595 34.9378C120.536 34.9378 120.481 34.9179 120.431 34.8779C120.386 34.8379 120.363 34.793 120.363 34.743V34.4133C120.278 34.5732 120.141 34.7105 119.951 34.8254C119.766 34.9353 119.561 34.9903 119.337 34.9903C118.982 34.9903 118.672 34.8479 118.407 34.5632C118.143 34.2734 118.01 33.9412 118.01 33.5665ZM118.497 33.5665C118.497 33.8163 118.59 34.0411 118.775 34.2409C118.959 34.4408 119.177 34.5407 119.426 34.5407C119.666 34.5407 119.879 34.4508 120.063 34.2709C120.248 34.0911 120.341 33.9337 120.341 33.7988V32.7497C120.341 32.465 120.248 32.2352 120.063 32.0603C119.884 31.8855 119.674 31.7981 119.434 31.7981C119.179 31.7981 118.959 31.8955 118.775 32.0903C118.59 32.2851 118.497 32.5049 118.497 32.7497V33.5665Z" fill="#6D6875"/>
<path d="M121.632 33.5665V32.7497C121.632 32.3701 121.772 32.0428 122.052 31.7681C122.332 31.4883 122.664 31.3484 123.049 31.3484C123.433 31.3484 123.768 31.4858 124.053 31.7606C124.338 32.0353 124.48 32.3651 124.48 32.7497V33.5665C124.48 33.9412 124.335 34.2734 124.045 34.5632C123.761 34.8479 123.428 34.9903 123.049 34.9903C122.674 34.9903 122.344 34.8479 122.059 34.5632C121.775 34.2734 121.632 33.9412 121.632 33.5665ZM122.119 33.5665C122.119 33.8213 122.209 34.0486 122.389 34.2484C122.574 34.4433 122.794 34.5407 123.049 34.5407C123.308 34.5407 123.531 34.4433 123.716 34.2484C123.9 34.0486 123.993 33.8213 123.993 33.5665V32.7497C123.993 32.5049 123.898 32.2851 123.708 32.0903C123.523 31.8955 123.303 31.7981 123.049 31.7981C122.794 31.7981 122.574 31.8955 122.389 32.0903C122.209 32.2851 122.119 32.5049 122.119 32.7497V33.5665Z" fill="#6D6875"/>
<path d="M125.28 34.743V31.5732C125.28 31.5233 125.303 31.4808 125.347 31.4459C125.392 31.4109 125.45 31.3934 125.52 31.3934C125.585 31.3934 125.64 31.4109 125.685 31.4459C125.73 31.4808 125.752 31.5233 125.752 31.5732V31.9404C125.842 31.7756 125.974 31.6357 126.149 31.5208C126.324 31.4059 126.526 31.3484 126.756 31.3484H127.019C127.068 31.3484 127.113 31.3709 127.153 31.4159C127.193 31.4608 127.213 31.5133 127.213 31.5732C127.213 31.6332 127.193 31.6856 127.153 31.7306C127.113 31.7756 127.068 31.7981 127.019 31.7981H126.756C126.496 31.7981 126.267 31.9005 126.067 32.1053C125.867 32.3051 125.767 32.5674 125.767 32.8921V34.743C125.767 34.793 125.742 34.8379 125.692 34.8779C125.647 34.9179 125.59 34.9378 125.52 34.9378C125.455 34.9378 125.397 34.9179 125.347 34.8779C125.303 34.8379 125.28 34.793 125.28 34.743Z" fill="#6D6875"/>
<path d="M128.901 31.5957C128.901 31.5358 128.931 31.4858 128.991 31.4459C129.056 31.4009 129.124 31.3784 129.194 31.3784C129.283 31.3784 129.341 31.4159 129.366 31.4908L130.325 34.1585L131.097 31.7231C131.122 31.6382 131.187 31.5957 131.292 31.5957C131.397 31.5957 131.462 31.6382 131.487 31.7231L132.228 34.1885L133.21 31.4908C133.225 31.4159 133.28 31.3784 133.375 31.3784C133.445 31.3784 133.51 31.3984 133.57 31.4384C133.635 31.4783 133.667 31.5308 133.667 31.5957C133.667 31.6407 133.657 31.6782 133.637 31.7081L132.468 34.8779C132.443 34.9578 132.378 34.9978 132.273 34.9978C132.178 34.9978 132.111 34.9603 132.071 34.8854L131.292 32.45L130.52 34.8479C130.49 34.9478 130.417 34.9978 130.303 34.9978C130.198 34.9978 130.13 34.9478 130.1 34.8479L128.931 31.7081C128.911 31.6682 128.901 31.6307 128.901 31.5957Z" fill="#6D6875"/>
<path d="M134.124 33.5665V32.7272C134.124 32.3526 134.264 32.0304 134.544 31.7606C134.824 31.4858 135.161 31.3484 135.555 31.3484C135.935 31.3484 136.262 31.4783 136.537 31.7381C136.817 31.9979 136.957 32.3226 136.957 32.7123C136.957 32.8521 136.939 32.9645 136.904 33.0495C136.874 33.1344 136.822 33.1943 136.747 33.2293C136.677 33.2643 136.612 33.2868 136.552 33.2968C136.492 33.3067 136.41 33.3117 136.305 33.3117H134.611V33.589C134.611 33.8838 134.716 34.121 134.926 34.3009C135.141 34.4757 135.416 34.5632 135.75 34.5632C135.92 34.5632 136.068 34.5382 136.192 34.4882C136.322 34.4383 136.42 34.3883 136.485 34.3384C136.555 34.2884 136.61 34.2634 136.65 34.2634C136.704 34.2634 136.752 34.2909 136.792 34.3459C136.837 34.3958 136.859 34.4458 136.859 34.4957C136.859 34.6006 136.752 34.7105 136.537 34.8254C136.322 34.9353 136.055 34.9903 135.735 34.9903C135.261 34.9903 134.874 34.8604 134.574 34.6006C134.274 34.3359 134.124 33.9912 134.124 33.5665ZM134.611 32.9521H136.11C136.26 32.9521 136.36 32.9371 136.41 32.9071C136.46 32.8721 136.485 32.8022 136.485 32.6973C136.485 32.4475 136.395 32.2277 136.215 32.0378C136.04 31.848 135.818 31.7531 135.548 31.7531C135.288 31.7531 135.066 31.843 134.881 32.0229C134.701 32.2027 134.611 32.4175 134.611 32.6673V32.9521Z" fill="#6D6875"/>
<path d="M137.691 34.743V29.4001C137.691 29.3502 137.714 29.3077 137.759 29.2727C137.804 29.2378 137.861 29.2203 137.931 29.2203C138.001 29.2203 138.058 29.2378 138.103 29.2727C138.153 29.3077 138.178 29.3502 138.178 29.4001V31.9179C138.268 31.7531 138.398 31.6182 138.568 31.5133C138.743 31.4034 138.945 31.3484 139.175 31.3484C139.545 31.3484 139.859 31.4858 140.119 31.7606C140.384 32.0353 140.516 32.3651 140.516 32.7497V33.5665C140.516 33.9412 140.381 34.2734 140.112 34.5632C139.847 34.8479 139.54 34.9903 139.19 34.9903C138.965 34.9903 138.758 34.9353 138.568 34.8254C138.378 34.7105 138.243 34.5732 138.163 34.4133V34.743C138.163 34.793 138.141 34.8379 138.096 34.8779C138.051 34.9179 137.996 34.9378 137.931 34.9378C137.866 34.9378 137.809 34.9179 137.759 34.8779C137.714 34.8379 137.691 34.793 137.691 34.743ZM138.178 33.7988C138.178 33.9337 138.271 34.0911 138.456 34.2709C138.645 34.4508 138.86 34.5407 139.1 34.5407C139.35 34.5407 139.567 34.4408 139.752 34.2409C139.937 34.0411 140.029 33.8163 140.029 33.5665V32.7497C140.029 32.5049 139.937 32.2851 139.752 32.0903C139.567 31.8955 139.347 31.7981 139.092 31.7981C138.853 31.7981 138.64 31.8855 138.456 32.0603C138.271 32.2352 138.178 32.465 138.178 32.7497V33.7988Z" fill="#6D6875"/>
<path d="M0 26.5091V11.2943C0 11.0545 0.107907 10.8506 0.323721 10.6828C0.539534 10.5149 0.815296 10.431 1.15101 10.431C1.46274 10.431 1.72651 10.5149 1.94232 10.6828C2.15814 10.8506 2.26604 11.0545 2.26604 11.2943V12.9488C2.69767 12.1575 3.32113 11.5101 4.13643 11.0065C4.97571 10.479 5.94687 10.2152 7.04992 10.2152C8.20092 10.2152 9.23203 10.5509 10.1432 11.2223C11.0545 11.8698 11.7259 12.733 12.1575 13.8121C12.757 12.6371 13.5483 11.7499 14.5315 11.1504C15.5146 10.5269 16.5457 10.2152 17.6248 10.2152C19.2554 10.2152 20.6702 10.8267 21.8691 12.0496C23.0681 13.2725 23.6676 14.9031 23.6676 16.9414V26.5091C23.6676 26.7489 23.5477 26.9647 23.3079 27.1566C23.0921 27.3484 22.8163 27.4443 22.4806 27.4443C22.1689 27.4443 21.8931 27.3484 21.6533 27.1566C21.4375 26.9647 21.3296 26.7489 21.3296 26.5091V16.9414C21.3296 15.5266 20.91 14.4116 20.0707 13.5963C19.2554 12.781 18.3082 12.3733 17.2291 12.3733C16.1261 12.3733 15.1429 12.793 14.2797 13.6322C13.4404 14.4475 13.0208 15.5026 13.0208 16.7975V26.5451C13.0208 27.1446 12.6251 27.4443 11.8338 27.4443C11.0665 27.4443 10.6828 27.1446 10.6828 26.5451V16.8335C10.6828 15.5626 10.2751 14.5075 9.45984 13.6682C8.66852 12.8049 7.70935 12.3733 6.58232 12.3733C5.45529 12.3733 4.46015 12.793 3.5969 13.6322C2.75762 14.4475 2.33798 15.5506 2.33798 16.9414V26.5091C2.33798 26.7489 2.21809 26.9647 1.97829 27.1566C1.7385 27.3484 1.46274 27.4443 1.15101 27.4443C0.839276 27.4443 0.563514 27.3484 0.323721 27.1566C0.107907 26.9647 0 26.7489 0 26.5091Z" fill="#6D6875"/>
<path d="M26.8786 22.9482C26.8786 21.1018 27.586 19.8189 29.0008 19.0995C30.4396 18.3801 32.5258 18.0204 35.2594 18.0204H37.0938V17.1572C37.0938 15.8383 36.7461 14.6993 36.0507 13.7401C35.3553 12.757 34.2883 12.2654 32.8495 12.2654C31.8903 12.2654 31.0151 12.4453 30.2238 12.805C29.4564 13.1407 29.0488 13.3085 29.0008 13.3085C28.7131 13.3085 28.4853 13.1766 28.3174 12.9129C28.1495 12.6491 28.0656 12.3613 28.0656 12.0496C28.0656 11.594 28.5812 11.1744 29.6123 10.7907C30.6434 10.407 31.7464 10.2152 32.9214 10.2152C35.1755 10.2152 36.8181 10.8746 37.8492 12.1935C38.9043 13.4884 39.4318 15.1429 39.4318 17.1572V26.5091C39.4318 26.7729 39.3239 27.0007 39.1081 27.1925C38.8923 27.3604 38.6165 27.4443 38.2808 27.4443C37.9691 27.4443 37.7053 27.3604 37.4895 27.1925C37.2977 27.0007 37.2017 26.7729 37.2017 26.5091V24.9265C35.5951 26.7729 33.7847 27.6961 31.7704 27.6961C30.3317 27.6961 29.1567 27.3004 28.2455 26.5091C27.3343 25.6938 26.8786 24.5069 26.8786 22.9482ZM29.2166 22.7324C29.2166 23.7395 29.5044 24.4949 30.0799 24.9984C30.6554 25.478 31.4107 25.7178 32.3459 25.7178C33.473 25.7178 34.54 25.2982 35.5472 24.4589C36.5783 23.6196 37.0938 22.7803 37.0938 21.9411V19.6391H35.5831C34.624 19.6391 33.8087 19.675 33.1372 19.747C32.4898 19.8189 31.8424 19.9508 31.1949 20.1426C30.5475 20.3345 30.0559 20.6462 29.7202 21.0778C29.3845 21.5094 29.2166 22.061 29.2166 22.7324Z" fill="#6D6875"/>
<path d="M43.8372 26.5091V11.2943C43.8372 11.0305 43.9451 10.8267 44.1609 10.6828C44.3767 10.5149 44.6525 10.431 44.9882 10.431C45.2759 10.431 45.5277 10.5149 45.7435 10.6828C45.9593 10.8506 46.0672 11.0545 46.0672 11.2943V12.9488C46.4749 12.1815 47.0984 11.534 47.9376 11.0065C48.7769 10.479 49.7601 10.2152 50.8871 10.2152C52.6136 10.2152 54.1123 10.8746 55.3832 12.1935C56.6541 13.5123 57.2896 15.095 57.2896 16.9414V26.5091C57.2896 26.7969 57.1697 27.0247 56.9299 27.1925C56.6901 27.3604 56.4143 27.4443 56.1026 27.4443C55.8148 27.4443 55.5511 27.3604 55.3113 27.1925C55.0715 27.0247 54.9516 26.7969 54.9516 26.5091V16.9414C54.9516 15.7664 54.508 14.7113 53.6207 13.7761C52.7335 12.8409 51.6784 12.3733 50.4555 12.3733C49.3284 12.3733 48.3333 12.793 47.47 13.6322C46.6068 14.4715 46.1751 15.5746 46.1751 16.9414V26.5091C46.1751 26.7489 46.0553 26.9647 45.8155 27.1566C45.5757 27.3484 45.2999 27.4443 44.9882 27.4443C44.6525 27.4443 44.3767 27.3484 44.1609 27.1566C43.9451 26.9647 43.8372 26.7489 43.8372 26.5091Z" fill="#6D6875"/>
<path d="M61.5013 20.9339V11.3302C61.5013 11.1144 61.6092 10.9106 61.825 10.7187C62.0648 10.5269 62.3526 10.431 62.6883 10.431C62.976 10.431 63.2398 10.5269 63.4796 10.7187C63.7194 10.9106 63.8393 11.1144 63.8393 11.3302V20.9339C63.8393 22.1329 64.2829 23.2 65.1701 24.1352C66.0574 25.0704 67.1124 25.538 68.3354 25.538C69.5583 25.538 70.6134 25.0704 71.5007 24.1352C72.3879 23.2 72.8315 22.1329 72.8315 20.9339V11.2943C72.8315 11.0545 72.9514 10.8506 73.1912 10.6828C73.431 10.5149 73.7068 10.431 74.0185 10.431C74.3302 10.431 74.594 10.5149 74.8098 10.6828C75.0496 10.8506 75.1695 11.0545 75.1695 11.2943V20.9339C75.1695 22.7324 74.4861 24.315 73.1193 25.6818C71.7764 27.0247 70.1818 27.6961 68.3354 27.6961C66.465 27.6961 64.8584 27.0247 63.5156 25.6818C62.1727 24.315 61.5013 22.7324 61.5013 20.9339Z" fill="#6D6875"/>
<path d="M79.5251 26.5451V6.87007C79.5251 5.02366 80.1965 3.41705 81.5394 2.05023C82.8822 0.68341 84.7046 0 87.0067 0C88.3735 0 89.6324 0.227803 90.7834 0.68341C91.9584 1.11504 92.5459 1.63059 92.5459 2.23007C92.5459 2.49385 92.45 2.7816 92.2581 3.09333C92.0663 3.38108 91.8505 3.52496 91.6107 3.52496C91.4668 3.52496 91.215 3.41705 90.8553 3.20124C90.5196 2.96144 90.0281 2.72165 89.3806 2.48186C88.7332 2.24206 87.9778 2.12217 87.1146 2.12217C85.3401 2.12217 84.0212 2.60175 83.158 3.56093C82.2947 4.5201 81.8631 5.59917 81.8631 6.79813V10.431H86.4312C86.6709 10.431 86.8628 10.5269 87.0067 10.7187C87.1745 10.9106 87.2584 11.1264 87.2584 11.3662C87.2584 11.6539 87.1745 11.8937 87.0067 12.0856C86.8628 12.2774 86.6709 12.3733 86.4312 12.3733H81.8631V26.5451C81.8631 26.8089 81.7432 27.0247 81.5034 27.1925C81.2636 27.3604 80.9759 27.4443 80.6402 27.4443C80.3284 27.4443 80.0647 27.3604 79.8488 27.1925C79.633 27.0247 79.5251 26.8089 79.5251 26.5451ZM90.8913 26.5091V11.2943C90.8913 11.0545 90.9992 10.8506 91.215 10.6828C91.4308 10.5149 91.7066 10.431 92.0423 10.431C92.378 10.431 92.6538 10.5149 92.8696 10.6828C93.1094 10.8506 93.2293 11.0545 93.2293 11.2943V26.5091C93.2293 26.7489 93.1094 26.9647 92.8696 27.1566C92.6298 27.3484 92.354 27.4443 92.0423 27.4443C91.7306 27.4443 91.4548 27.3484 91.215 27.1566C90.9992 26.9647 90.8913 26.7489 90.8913 26.5091Z" fill="#6D6875"/>
<path d="M97.6484 22.1569V3.20124C97.6484 2.96144 97.7683 2.75762 98.0081 2.58976C98.2479 2.42191 98.5117 2.33798 98.7994 2.33798C99.1112 2.33798 99.3869 2.42191 99.6267 2.58976C99.8665 2.75762 99.9864 2.96144 99.9864 3.20124V10.431H104.626C104.866 10.431 105.058 10.5269 105.202 10.7187C105.37 10.9106 105.454 11.1384 105.454 11.4022C105.454 11.6659 105.37 11.8937 105.202 12.0856C105.058 12.2774 104.866 12.3733 104.626 12.3733H99.9864V22.1569C99.9864 23.3319 100.226 24.1592 100.706 24.6387C101.209 25.0943 102.085 25.3221 103.332 25.3221H104.339C104.65 25.3221 104.902 25.4301 105.094 25.6459C105.31 25.8377 105.418 26.0775 105.418 26.3652C105.418 26.653 105.31 26.9048 105.094 27.1206C104.902 27.3364 104.65 27.4443 104.339 27.4443H103.332C99.5428 27.4443 97.6484 25.6818 97.6484 22.1569Z" fill="#6D6875"/>
<path d="M106.888 7.91317V2.40992C106.888 2.09819 107.068 1.81044 107.427 1.54666C107.787 1.28289 108.171 1.15101 108.578 1.15101H121.347C121.731 1.15101 122.103 1.28289 122.463 1.54666C122.846 1.81044 123.038 2.09819 123.038 2.40992V6.11472C123.038 6.66625 122.81 7.37364 122.355 8.23689L112.679 26.9767C112.463 27.3604 112.079 27.5522 111.528 27.5522C110.904 27.5522 110.353 27.3724 109.873 27.0127C109.394 26.653 109.154 26.2094 109.154 25.6818C109.154 25.4181 109.214 25.1783 109.334 24.9625L119.225 6.76216V4.53209H110.701V7.91317C110.701 8.27286 110.497 8.5726 110.089 8.8124C109.706 9.05219 109.262 9.17208 108.758 9.17208C108.255 9.17208 107.811 9.05219 107.427 8.8124C107.068 8.5726 106.888 8.27286 106.888 7.91317Z" fill="#6D6875"/>
<path d="M124.85 20.2505V19.8189C124.85 16.3419 126.229 14.0998 128.986 13.0927C126.756 12.2294 125.641 10.3591 125.641 7.48154C125.641 5.29943 126.289 3.7048 127.584 2.69767C128.902 1.66656 130.689 1.15101 132.943 1.15101C135.197 1.15101 136.971 1.66656 138.266 2.69767C139.585 3.7048 140.245 5.29943 140.245 7.48154C140.245 10.383 139.118 12.2534 136.864 13.0927C139.621 14.0998 141 16.3419 141 19.8189V20.2505C141 22.7923 140.269 24.6627 138.806 25.8617C137.343 27.0606 135.389 27.6601 132.943 27.6601C130.497 27.6601 128.531 27.0606 127.044 25.8617C125.581 24.6627 124.85 22.7923 124.85 20.2505ZM128.663 19.8549C128.663 21.4135 129.034 22.5765 129.778 23.3439C130.545 24.1112 131.6 24.4949 132.943 24.4949C135.773 24.4949 137.187 22.9482 137.187 19.8549V19.2074C137.187 16.21 135.773 14.7113 132.943 14.7113C130.089 14.7113 128.663 16.21 128.663 19.2074V19.8549ZM129.346 7.91317C129.346 10.3351 130.545 11.546 132.943 11.546C135.341 11.546 136.54 10.3351 136.54 7.91317C136.54 5.51524 135.341 4.31628 132.943 4.31628C130.545 4.31628 129.346 5.51524 129.346 7.91317Z" fill="#6D6875"/>
</svg>
